<svg xmlns="http://www.w3.org/2000/svg" viewBox="0 0 24 24">
  <path d="M12 18a6 6 0 1 0 0-12 6 6 0 0 0 0 12zm0 4a1 1 0 0 1-1-1v-2a1 1 0 0 1 2 0v2a1 1 0 0 1-1 1zm0-20a1 1 0 0 1 1 1v2a1 1 0 0 1-2 0V3a1 1 0 0 1 1-1zm10 9a1 1 0 0 1 0 2h-2a1 1 0 0 1 0-2h2zM4 11a1 1 0 0 1 0 2H2a1 1 0 0 1 0-2h2zm15.071-6.071a1 1 0 0 1 1.414 1.414L18.414 8.414a1 1 0 1 1-1.414-1.414l2.071-2.071zM6.343 17.657a1 1 0 0 1 1.414-1.414l2.071 2.071a1 1 0 1 1-1.414 1.414L6.343 17.657zm12.728 1.414a1 1 0 1 1-1.414 1.414l-2.071-2.071a1 1 0 1 1 1.414-1.414l2.071 2.071zM6.343 6.343a1 1 0 0 1 1.414 0L9.828 8.414a1 1 0 0 1-1.414 1.414L6.343 7.757a1 1 0 0 1 0-1.414z"/>
</svg>
